<?xml version="1.0" encoding="UTF-8"?>
<svg width="1200pt" height="1200pt" version="1.1" viewBox="0 0 1200 1200" xmlns="http://www.w3.org/2000/svg">
 <path d="m700.16 100.23c0 55.391-44.844 100.08-100.16 100.08-55.32 0-100.15-44.688-100.15-100.08 0.003906-55.391 44.848-100.23 100.15-100.23 55.309 0 100.16 44.844 100.16 100.23z"/>
 <path d="m832.41 615.31s-52.57-255.48-77.578-306.72v-0.15625s-0.070312 0-0.070312-0.15625c-25.008-51.168-50.004-82.031-144.93-82.031h-19.68c-94.922 0-119.91 30.863-144.93 82.031 0 0.15625-0.070313 0.15625-0.070313 0.15625v0.15625c-24.996 51.254-77.578 306.72-77.578 306.72-3.9102 17.184 6.793 34.367 24.059 38.27 2.4258 0.63672 4.8477 0.9375 7.1875 0.9375 14.605 0 27.816-10.152 31.246-24.84l71.102-252.72-69.074 422.41h66.562l20.699 376.64c0 13.211 10.777 23.988 23.746 23.988 13.598 0 24.289-10.777 24.289-23.988l20.473-376.64h24.219l20.473 376.64c0 13.211 10.703 23.988 24.289 23.988 12.973 0 23.746-10.777 23.746-23.988l20.711-376.64h66.48l-68.977-422.41 71.102 252.73c3.4336 14.699 16.645 24.84 31.246 24.84 2.3398 0 4.7539-0.30078 7.1875-0.9375 17.27-3.8984 27.973-21.094 24.062-38.277z"/>
</svg>
